<?xml version="1.0" encoding="utf-8"?>
<!-- Generator: Adobe Illustrator 27.1.0, SVG Export Plug-In . SVG Version: 6.00 Build 0)  -->
<svg version="1.1" id="Livello_1" xmlns="http://www.w3.org/2000/svg" xmlns:xlink="http://www.w3.org/1999/xlink" x="0px" y="0px"
	 viewBox="0 0 2000 2000" style="enable-background:new 0 0 2000 2000;" xml:space="preserve">
<style type="text/css">
	.st0{fill:#005CFF;}
</style>
<path class="st0" d="M1640.9,637.8c-190.3-221.1-467.2-264.4-741.3-297.5C658.8,311.2,269.1,281.7,187.5,0
	c-58,209.1-58.1,454.1,136.3,591.8c242.5,171.7,564.1,65.1,823.8,187.7c149.4,70.5,251.8,209,263.7,375.1
	c12.7,177.4-108,349.7-273.1,409.7c-75.4,27.4-157.9,35.5-237.1,22.6c-176.5-28.8-337.5-163.2-363.3-345.6
	c-22.8-161.1,72.7-279.7,240.9-254.9c0,0,1.4,7.7,2.3,11.5c15.1,64.2,80.6,130.3,212.4,144.9c89.8,10,172.5-24,202.8-96.3
	c-9.6-78.7-54.9-136.9-134.7-172.9c-64-29-136.7-36-205.8-43.5c-74.6-8-149.5-12.8-224-21.1c-77-8.6-180.4-28.1-254.1-52.3
	c-253.8,239.8-249.5,671.9-48.1,934.4c270.6,352.6,848.7,406.3,1200.3,145.4c199.4-147.9,309.8-390.3,316.2-635.8
	C1851.4,997.3,1774.5,793,1640.9,637.8z"/>
</svg>
