<?xml version="1.0" encoding="utf-8"?>
<!-- Generator: Adobe Illustrator 27.1.0, SVG Export Plug-In . SVG Version: 6.00 Build 0)  -->
<svg version="1.1" id="Livello_1" xmlns="http://www.w3.org/2000/svg" xmlns:xlink="http://www.w3.org/1999/xlink" x="0px" y="0px"
	 viewBox="0 0 2019.4 1000" style="enable-background:new 0 0 2019.4 1000;" xml:space="preserve">
<defs>
	<filter id="glow">
		<feGaussianBlur stdDeviation="8" result="coloredBlur"/>
		<feMerge>
			<feMergeNode in="coloredBlur"/>
			<feMergeNode in="coloredBlur"/>
			<feMergeNode in="SourceGraphic"/>
		</feMerge>
	</filter>
	<filter id="glow-hover">
		<feGaussianBlur stdDeviation="12" result="coloredBlur"/>
		<feMerge>
			<feMergeNode in="coloredBlur"/>
			<feMergeNode in="coloredBlur"/>
			<feMergeNode in="coloredBlur"/>
			<feMergeNode in="SourceGraphic"/>
		</feMerge>
	</filter>
</defs>
<style type="text/css">
	.st0{fill:#FFFFFF; filter: url(#glow);}
</style>
<g>
	<path class="st0" d="M1626,492.2c1.9-0.7,16-4.5,104.3-4.9c40.2-0.2,174.2-0.8,174.2-0.8s-134-0.6-174.2-0.8
		c-82.9-0.4-100.5-3.7-103.8-4.6c-8.5-37.4-106.5-56.4-139.7-63.2c-15.3-2.7-30.5-5.2-45.8-7.5c-2-2.4-5-3.9-8.3-3.9h-19.1
		c-4.9-0.6-9.7-1.3-14.6-1.9c-2.9-2-4.7-5.2-4.7-8.9c0-6,4.9-10.8,10.8-10.8h49.3c6,0,10.8,4.9,10.8,10.8v2.7
		c0,6,4.9,10.8,10.8,10.8h6c6,0,10.8-4.9,10.8-10.8v-5.1c0-6-4.9-10.8-10.8-10.8h-3.2c-6,0-10.8-4.9-10.8-10.8v-3
		c0-6-4.9-10.8-10.8-10.8h-54.7c-6,0-10.8,4.9-10.8,10.8v3c0,6-4.9,10.8-10.8,10.8h-3c-6,0-10.8,4.9-10.8,10.8v7.7
		c-9.1-1-18.2-1.8-27.4-2.7c1.4-1.6,2.8-3.2,4.3-4.9c4.7-5.5,10.4-12.3,16.9-20.3c3.3-4,6.5-8.3,9.8-13c3.3-4.7,6.5-9.5,9.5-14.5
		c3-5,5.8-10,8.5-15c2.6-5,4.9-9.8,6.8-14.4c1.9-4.6,3.5-8.8,4.6-12.7c1.1-3.9,1.7-7.2,1.7-10c0-4.1-1.1-6.9-3.2-8.4
		c-2.1-1.5-4.8-2.3-7.9-2.3c-4.1,0-8.6,1.4-13.5,4.2c-5,2.8-10.1,6.7-15.5,11.6c-1.1,1-2.2,2.1-3.3,3.1l-2.1-15.1l-2.2,15.9
		c-0.6,4-3.7,7.2-7.8,7.8l-15.9,2.2l15.9,2.2c0.1,0,0.2,0,0.2,0c-0.4,0.5-0.9,1-1.3,1.6c-5.6,6.8-10.9,14.2-16,22.2
		c-5.1,8-9.9,16.4-14.4,25.3c-4.5,8.8-8.4,17.8-11.8,26.9c-0.6,1.5-1.1,3-1.6,4.5c-3.3-0.2-6.5-0.5-9.8-0.7
		c-1.1-11.3-3.8-19.8-8.1-25.6c-5.8-7.7-13.3-11.5-22.7-11.5c-7.8,0-14.8,2.7-21.1,8.1c-6.3,5.4-11.3,12.8-15,22.3
		c-0.4,1.1-0.8,2.3-1.2,3.4c-5.7-0.2-11.4-0.3-17-0.5v-22.5c0-6-4.9-10.8-10.8-10.8h-6c-6,0-10.8,4.9-10.8,10.8v22
		c-23.7-0.3-47.4-0.2-71.1,0.1v-22.1c0-6-4.9-10.8-10.8-10.8h-5.7c-6,0-10.8,4.9-10.8,10.8V391c-1.6,0-3.1,0.1-4.7,0.1
		c-2.2-8.5-5.8-32.8-6.3-100.1c-0.3-40.2-1.2-174.2-1.2-174.2s-0.9,134-1.2,174.2c-0.5,68.5-4.2,92.4-6.3,100.5
		c-1.5,0-3.1,0.1-4.6,0.2v-4.8c0-9.7-2.1-17-6.4-22s-10-7.5-17.1-7.5c-5.4,0-10.5,1.1-15.3,3.3c-4.8,2.2-10.4,6.3-16.7,12.4
		c-1.3,1.3-2.4,1.7-3.4,1.3c-1-0.4-1.5-1.3-1.5-2.7V361c0-1.9-0.7-2.9-2.1-2.9c-0.9,0-2.1,0.7-3.6,2.1c-2.9,2.5-5.6,4.7-8.2,6.4
		c-2.6,1.7-6.4,3-11.3,3.8c-2.5,0.5-3.8,1.3-3.8,2.6c0,1.6,1,2.5,3.1,2.6l5,0.7c2.2,0.3,3.8,1,4.6,2c0.9,1,1.3,3,1.3,5.8v10.9
		c-14.4,0.8-28.7,1.7-43.1,2.7V393c0-6-4.9-10.8-10.8-10.8h-3.3c-6,0-10.8-4.9-10.8-10.8v-3c0-6-4.9-10.8-10.8-10.8h-54.9
		c-6,0-10.8,4.9-10.8,10.8v3c0,6-4.9,10.8-10.8,10.8h-3c-6,0-10.8,4.9-10.8,10.8v16.7c-6.6,0.8-13.4,1.6-20.3,2.4v-25.1
		c0-9.7-2.1-17-6.3-22c-4.2-5-9.6-7.5-16.3-7.5c-4.9,0-9.7,1.1-14.5,3.3c-4.8,2.2-10.4,6.3-16.9,12.4c-1.1,1.1-2.3,1.5-3.4,1.3
		c-1.2-0.2-2-1-2.5-2.3c-1.7-4.9-4.4-8.6-8-11c-3.6-2.5-7.6-3.7-12.2-3.7c-4.9,0-9.8,1.1-14.6,3.3c-4.8,2.2-10.5,6.4-17,12.6
		c-1.1,1.1-2.1,1.4-3.1,0.8c-1-0.6-1.4-1.4-1.4-2.5V361c0-1.9-0.7-2.9-2.1-2.9c-0.9,0-2.1,0.7-3.6,2.1c-2.9,2.5-5.6,4.7-8.2,6.4
		c-2.6,1.7-6.4,3-11.3,3.8c-2.5,0.5-3.8,1.3-3.8,2.6c0,1.6,1,2.5,3.1,2.6l5,0.7c2.2,0.3,3.8,1,4.6,2c0.9,1,1.3,3,1.3,5.8v46.3
		c-0.1,0.1-0.2,0.3-0.3,0.4c-56.6,9.6-112.8,21.5-159.4,35.6c-1.7-5-2.6-10.5-2.6-16.6c0-4.6,0.5-9.1,1.5-13.5
		c0.2-0.7,0.8-1.2,1.5-1.2h3.4c0.9,0,1.6-0.7,1.6-1.6v-5.6c0-0.9,0.7-1.6,1.6-1.6h4.9c0.9,0,1.6-0.7,1.6-1.6v-8.3
		c0-0.9,0.7-1.6,1.6-1.6h1.9c0.9,0,1.6-0.7,1.6-1.6V410c0-0.9,0.7-1.6,1.6-1.6h2.6c0.9,0,1.6-0.7,1.6-1.6v-3.6
		c0-0.9,0.7-1.6,1.6-1.6h8.3c0.9,0,1.6-0.7,1.6-1.6v-7.8c0-0.6,0.3-1.1,0.9-1.4c0.9-0.4,1.7-0.8,2.6-1.2c7.8-3.5,16.4-5.8,25.5-6.7
		c0.5-0.1,1.1,0.2,1.4,0.6c2.2,2.8,4.5,5.5,7.1,7.9c3.1,2.9,6.4,5.5,9.9,7.5c3.4,2.1,7.1,3.7,10.8,4.9c3.7,1.2,7.5,1.8,11,1.8
		c4.7,0,8.7-1.1,11.9-3.4c3.5-2.4,5.2-6,5.2-10.5c0-4.1-1.4-7.6-4.2-10.5c-2.6-2.7-6.1-4.9-10.5-6.5c-4.2-1.6-9.3-2.8-15-3.5
		c-4.8-0.6-10-1.1-15.5-1.3c-0.6,0-1.2-0.4-1.4-1c-1.3-3.9-1.9-7.9-1.9-12.1c0-5.1,1-10.4,2.9-15.5c1.9-5.2,4.7-10.3,8.3-15.2
		c2.1-2.9,4.5-5.7,7.1-8.3c0.3-0.3,0.7-0.5,1.1-0.5h8.4c0.9,0,1.6-0.7,1.6-1.6v-3.6c0-0.9,0.7-1.6,1.6-1.6h9.8
		c0.9,0,1.6-0.7,1.6-1.6v-6.9c0.7-0.7,1.2-1.2,1.9-1.9H633c0.9,0,1.6-0.7,1.6-1.6V295c0-0.7,0.5-1.4,1.2-1.5
		c5.6-1.2,11.5-1.9,17.3-1.9c3.9,0,7.6,0.4,10.9,1.2c3.2,0.8,5.9,2,8.1,3.5c2.1,1.4,3.8,3.2,5,5.3c1.2,2.1,1.8,4.5,1.8,7.2
		c0,0,0,0.1,0,0.1c-1,0.4-2,0.7-3.1,0.8l-22.3,3.1l22.3,3.1c0.6,0.1,1.3,0.2,1.9,0.4c-0.8,2.5-2.1,4.8-3.8,7.1
		c-3.5,4.6-8.1,8.6-13.7,11.9c-5.7,3.3-12.2,6-19.3,7.9c-7.1,1.9-14.2,2.8-21.2,2.8l-5.2-0.1c-0.8,0-1.5,0.6-1.6,1.4l-1.1,9.1
		c-0.1,0.9,0.6,1.7,1.5,1.7c2.1,0.1,5.7,0.3,6.9,0.3c5.1,0,10.5-0.5,16-1.5s10.9-2.5,16.1-4.4c5.2-1.9,10.1-4.3,14.8-7.1
		c4.6-2.8,8.8-6.1,12.3-9.7c2.9-3,5.3-6.2,7.2-9.7c0.1,0.3,0.1,0.6,0.2,0.9l3.1,22.3l3.1-22.3c0.8-5.7,5.2-10.1,10.9-10.9l22.3-3.1
		l-22.3-3.1c-5.7-0.8-10.1-5.2-10.9-10.9l-3.1-22.3l-2.5,18.1c-2.2-3.7-5.2-6.9-9.1-9.5c-4-2.7-9-4.9-14.7-6.4
		c-5.5-1.4-11.7-2.2-18.6-2.2v0h-54c-0.9,0-1.6,0.7-1.6,1.6v3.5c0,0.9-0.7,1.6-1.6,1.6H578c-0.9,0-1.6,0.7-1.6,1.6v7.3
		c0,0.9-0.7,1.6-1.6,1.6h-5.3c-0.9,0-1.6,0.7-1.6,1.6v7.3c0,0.9-0.7,1.6-1.6,1.6h-3.1c-0.9,0-1.6,0.7-1.6,1.6v14.2
		c0,0.3-0.1,0.5-0.2,0.7c-1.6,2.9-3,5.9-4.2,9.1c-2.5,6.6-3.8,13.7-3.8,21.1c0,4.1,0.5,8.1,1.5,11.9c0.5,1.9,1.1,3.8,1.8,5.7
		c0.4,1-0.3,2-1.3,2.1c-7.9,0.7-15.3,2-21.9,3.9c-6.7,1.9-12.8,4.4-18.3,7.2c-0.2,0.1-0.5,0.2-0.7,0.2h-14.5c-0.9,0-1.6,0.7-1.6,1.6
		v3.6c0,0.9-0.7,1.6-1.6,1.6h-3.6c-0.9,0-1.6,0.7-1.6,1.6v3.6c0,0.9-0.7,1.6-1.6,1.6h-4.6c-0.9,0-1.6,0.7-1.6,1.6v5.9
		c0,0.9-0.7,1.6-1.6,1.6H482c-0.9,0-1.6,0.7-1.6,1.6v8.7c0,0.9-0.7,1.6-1.6,1.6h-0.4c-0.9,0-1.6,0.7-1.6,1.6v11.9
		c0,0.1-0.1,0.3-0.1,0.4c-1.4,5.8-2.2,11.6-2.2,17.3c0,8.1,1.5,15.9,4.5,23.1c0.4,0.9,0.8,1.8,1.2,2.7c-40,13.6-71,29.1-86.2,46.7
		c-3.3,4.1-5.4,8-6.6,11.8c-6.4,2-28.4,6.2-102.1,6.7c-40.2,0.3-174.2,1.2-174.2,1.2s134,0.9,174.2,1.2c75.9,0.5,97,5.1,102.7,7.1
		c3.7,9.9,13.4,18.4,24.1,24.7c11.8,7,24.5,12.2,37.4,16.8c59.7,19.6,122,28.7,184.4,34.8l5.3,0.7c5.7,0.8,10.1,5.2,10.9,10.9
		l3.1,22.3l3.1-22.3c0.5-3.8,2.7-7.1,5.8-9.1c9,0.8,18.1,1.5,27.1,2.3c98.9,7,198,7.7,297,4.1c0.2,1.2,0.4,2.4,0.6,3.5
		c0.1,0.6-0.3,1.2-1,1.2h-0.2c-0.5,0-1,0.4-1,1v11.5c0,0.5,0.4,1,1,1h2.5c0.5,0,1,0.4,1,1v6.3c0,0.5,0.4,1,1,1h2.5c0.5,0,1,0.4,1,1
		v8.2c0,0.5,0.4,1,1,1h3.9c0.5,0,1,0.4,1,1v7.2c0,0.5,0.4,1,1,1h10.6c0.2,0,0.4,0.1,0.5,0.2c7.2,4.7,15.8,7.1,25.5,7.2
		c0.5,12.2,0.8,27,1,44.7c0.3,40.2,1.2,174.2,1.2,174.2s0.9-134,1.2-174.2c0.1-17.8,0.5-32.5,0.9-44.8c5.7-0.3,10.9-1.3,15.6-3.1
		c4.9-1.9,9.5-4.1,13.9-6.5c0.1-0.1,0.3-0.1,0.5-0.1h8.5c0.5,0,1-0.4,1-1v-3.5c0-0.5,0.4-1,1-1h1.1c0.5,0,1-0.4,1-1v-5.9
		c0-0.5,0.4-1,1-1s1-0.4,1-1v-9.9c0-0.1,0-0.1,0-0.2l5.7-24.6c13.9-1,27.7-2,41.6-3.2v6c0,3.3-0.5,5.7-1.5,7c-1,1.3-3.2,2.3-6.5,3
		l-2.9,0.5c-2.1,0.5-3.1,1.4-3.1,2.9c0,1.7,1.2,2.6,3.6,2.6h40.1c2.4,0,3.6-1,3.6-2.9c0-1.4-0.9-2.3-2.6-2.6l-6.4-0.7
		c-3.3-0.3-5.5-1.2-6.5-2.6c-1-1.4-1.5-3.8-1.5-7.1v-7.4c16.6-1.5,33.2-3.1,49.7-4.9c1.6,3.9,5.5,6.6,10,6.6h3
		c6,0,10.8,4.9,10.8,10.8v2.8c0,6,4.9,10.8,10.8,10.8h54.9c6,0,10.8-4.9,10.8-10.8v-3c0-6,4.9-10.8,10.8-10.8h3.3
		c6,0,10.8-4.9,10.8-10.8v-5.7c0-2.4-0.8-4.7-2.2-6.5c3.3-0.5,6.5-1.1,9.8-1.6c-0.4,3-0.5,6.2-0.5,9.3c0,6.9,1.1,12.8,3.2,17.9
		s5,9.1,8.6,12.3c3.6,3.2,7.8,5.6,12.5,7.1c4.7,1.6,9.7,2.3,15,2.3c6.6,0,13.3-1.2,20.2-3.6c6.9-2.4,13.7-6,20.4-10.8
		c6.7-4.8,13.2-10.8,19.6-17.9c3-3.4,6-7.1,8.8-11v8.5c0,6,4.9,10.8,10.8,10.8h3c6,0,10.8,4.9,10.8,10.8v2.8c0,6,4.9,10.8,10.8,10.8
		h54.9c6,0,10.8-4.9,10.8-10.8V635c0-6,4.9-10.8,10.8-10.8h3.3c6,0,10.8-4.9,10.8-10.8v-54.6c0-6-4.9-10.8-10.8-10.8h-3.3
		c-2,0-3.9-0.6-5.5-1.5c9.1-3.4,18.4-7.2,27.2-11.3c3.2,2,5.5,5.3,6,9.2l3.1,22.3l3.1-22.3c0.8-5.7,5.2-10.1,10.9-10.9l22.3-3.1
		l-22.3-3.1c-1.7-0.2-3.2-0.8-4.6-1.6C1609.1,515.8,1622.3,504.6,1626,492.2z M587.5,383.1c0.7,0.1,1.5,0.1,2.2,0.2
		c3.9,0.4,7.4,1,10.5,1.8c2.9,0.8,5.2,1.8,7,3c1.4,1,2,2,2,3.5c0,0.2,0,0.7-0.9,1.3c-0.6,0.4-1.7,0.9-4.1,0.9c-1.9,0-3.9-0.3-6-1
		c-2.2-0.7-4.3-1.7-6.5-3c-1.2-0.7-3.3-2.4-5.2-4C585.2,384.9,586,383,587.5,383.1z M1366.8,406.3v25.5c-1.1,1.7-2.4,3.5-3.8,5.6
		c-2.1,3.1-4.4,6.3-7,9.5c-2.6,3.3-5.3,6.5-8.2,9.8c-2.9,3.2-5.9,6.1-8.9,8.6c-3.1,2.5-6.2,4.6-9.3,6.2c-3.1,1.6-6.2,2.4-9.3,2.4
		c-4.6,0-8.2-1.9-10.7-5.7c-2.5-3.8-3.8-9.6-3.8-17.5c0-2.6,0-5.5-0.1-8.6c0-3.1,0.3-6.4,1-9.8c1.6-1.7,3.2-3.3,4.7-4.7
		c1.5-1.4,3.2-3,5-4.7c1.8-1.7,3.9-3.8,6.2-6.2c2.3-2.4,5.2-5.5,8.7-9.3c0.9-1,1.9-2.2,2.9-3.3
		C1345.2,404.7,1356,405.4,1366.8,406.3z M1313.6,402.9c3.7,0.2,7.5,0.4,11.2,0.6c-5.1,5.6-10.3,11.2-15.6,16.7
		C1310.4,414.5,1311.8,408.7,1313.6,402.9z M1318.1,390c4-10.3,8.5-20.3,13.5-29.9c5.1-9.7,10.5-18.7,16.2-27.2
		c2.1-3.1,4.2-6,6.2-8.9l2,14.4l2.2-15.9c0.6-4,3.7-7.2,7.8-7.8l15.9-2.2l-15.9-2.2c-0.4-0.1-0.8-0.1-1.1-0.2
		c5.2-6.2,10.1-11.1,14.6-14.7c4.6-3.7,8.3-5.6,11.1-5.6c1,0,1.8,0.6,2.6,1.8c0.7,1.2,1.1,2.2,1.1,2.9c0,4-1,8.7-3.1,14.2
		c-2.1,5.5-5,11.6-8.7,18.3c-3.7,6.7-8.2,13.8-13.4,21.3c-5.2,7.5-11,15.3-17.3,23.3c-6.3,8-13,16.1-20.2,24.2
		c-0.4,0.5-0.9,1-1.3,1.5c-4.8-0.4-9.7-0.8-14.5-1.2C1316.5,394.2,1317.2,392.1,1318.1,390z M1236.6,404.5c0.1-1.5,0.3-3,0.5-4.4
		c2.7,0.1,5.4,0.1,8.1,0.2c9.9,0.3,19.8,0.6,29.8,1c-1.3,4.7-4.9,7.1-10.8,7.1h-24C1237.4,408.3,1236.3,407,1236.6,404.5z
		 M1244.8,374.1c4.2-7.1,9.4-10.7,15.6-10.7c5.1,0,8.9,2.9,11.4,8.8c2.3,5.3,3.5,12.5,3.8,21.4c-12.3-0.7-24.7-1.3-37-1.8
		C1239.9,384.6,1242,378.7,1244.8,374.1z M1178.5,399.3v45.6c0,6-4.9,10.8-10.8,10.8h-49.5c-6,0-10.8-4.9-10.8-10.8v-45.5
		C1131.1,399.2,1154.8,399.1,1178.5,399.3z M1061.1,400.2c0.9,2.3,1.9,5.6,3.1,10.5c1.5,6,3.7,19.4,3.7,19.4s2.2-13.4,3.7-19.4
		c1.2-5.1,2.3-8.5,3.2-10.8c1.7,0,3.4-0.1,5.2-0.1v47.8c0,6,4.9,10.8,10.8,10.8h3c6,0,10.8,4.9,10.8,10.8v2.8c0,0.7,0.1,1.4,0.2,2.1
		c-5.6-1.2-12.3-1.8-20.1-1.8c-6.2,0-12.1,0.7-17.8,2l-3.3-0.5c-3.3-0.5-5.5-1.4-6.5-2.7c-1-1.3-1.5-3.7-1.5-7v-63.7
		C1057.5,400.3,1059.3,400.3,1061.1,400.2z M999.9,384.4c2.4-4.8,5.6-8.7,9.6-11.6c4-2.9,8.6-4.4,13.7-4.4c5.2,0,9.3,1.6,12.1,4.8
		c2.8,3.2,4.3,8.6,4.3,16.4v2.8c-14.3,0.6-28.5,1.2-42.8,2C997.4,390.8,998.4,387.5,999.9,384.4z M838.3,412.1
		c1.2-0.1,2.4-0.2,3.6-0.3c22.5-1.8,45-3.5,67.6-4.9v38c0,6-4.9,10.8-10.8,10.8h-49.5c-6,0-10.8-4.9-10.8-10.8V412.1z M838.3,395.4
		c0-6,4.9-10.8,10.8-10.8h49.5c6,0,10.8,4.9,10.8,10.8v4.5c-19.1,1.5-43.4,3.8-71.1,6.7V395.4z M736.6,384.4
		c2.4-4.8,5.5-8.7,9.4-11.6c3.9-2.9,8.2-4.4,12.9-4.4s8.5,1.6,11.3,4.8c2.8,3.2,4.2,8.6,4.2,16.4V414c-13.5,1.7-27.3,3.5-41.3,5.5
		v-19.1C733.1,394.6,734.3,389.3,736.6,384.4z M679.2,384.4c2.4-4.8,5.5-8.7,9.4-11.6c3.9-2.9,8.2-4.4,12.9-4.4
		c4.8,0,8.5,1.6,11.3,4.8c2.8,3.2,4.2,8.6,4.2,16.4v32.3c-13.7,2-27.5,4.1-41.3,6.4v-27.8C675.6,394.6,676.8,389.3,679.2,384.4z
		 M656.6,434.4c-2.7,3.5-6.1,7.5-10.1,11.8c-4.8,5.2-10.5,10.8-17,16.6c-0.4,0.4-0.8,0.7-1.2,1c-0.3,0.2-0.6,0.4-1,0.4H609
		c-0.9,0-1.6,0.7-1.6,1.6v3.6c0,0.9-0.7,1.6-1.6,1.6h-13.1c-0.9,0-1.6,0.7-1.6,1.6v1.4c0,0.9-0.7,1.6-1.6,1.6h-11.3
		c-0.9,0-1.6,0.7-1.6,1.6v2.8c0,0.9-0.7,1.6-1.6,1.6h-9.7c-0.9,0-1.6,0.7-1.6,1.6v2.7c0,0.9-0.7,1.6-1.6,1.6H549
		c-0.9,0-1.6,0.7-1.6,1.6v0.8c0,0.9-0.7,1.6-1.6,1.6h-5.2c-0.9,0-1.6,0.7-1.6,1.6c0,0.9-0.8,1.7-1.8,1.5c-3.2-0.5-6.3-1.2-9.2-2.1
		c-6.9-2.1-12.7-5.2-17.3-9.1c-4.2-3.6-7.4-7.9-9.7-12.8C552.1,454.6,604.1,443.2,656.6,434.4z M851.4,624.3
		c-62.5-0.4-125.1-2.1-187.4-7c-3.9-1.8-6.8-5.5-7.4-9.9l-3.1-22.3l-3.1,22.3c-0.5,3.4-2.3,6.4-4.9,8.4
		c-38.7-3.4-77.2-8.2-115.5-14.7c-32.8-6-65.8-12.9-96.8-25.5c-12-5.1-24.1-11.1-33.2-20.3c-2.8-3-4.8-5.9-6.1-8.9
		c2.3-0.9,5.9-2.1,11.4-3.5c6-1.5,19.4-3.7,19.4-3.7s-13.4-2.2-19.4-3.7c-6.2-1.5-9.9-2.8-12.1-3.8c8.5-26.1,65.9-47.5,89.1-55.6
		c2.8,4.9,6.4,9.3,10.9,13.3c6.2,5.5,14.1,10,23.4,13.2c9.3,3.2,20.5,4.9,33.2,4.9c6.5,0,12.8-0.5,18.9-1.4c0.1,0,0.1,0,0.2,0h20.3
		c0.9,0,1.6-0.7,1.6-1.6v-2.4c0-0.9,0.7-1.6,1.6-1.6h8.5c0.9,0,1.6-0.7,1.6-1.6v-1.6c0.6-0.6,1-1,1.7-1.7h9.6c0.9,0,1.6-0.7,1.6-1.6
		v-1.6c0-0.9,0.7-1.6,1.6-1.6h8.3c0.9,0,1.6-0.7,1.6-1.6v-4.9c0-0.9,0.7-1.6,1.6-1.6h11.6c0.9,0,1.6-0.7,1.6-1.6v-11.9h-0.5
		c3.7-3.4,7.1-6.8,10.2-10.1c3.1-3.3,5.9-6.6,8.5-9.8v14.4c0,3.3-0.5,5.7-1.5,7c-1,1.3-3.2,2.3-6.5,3l-2.9,0.5
		c-2.1,0.5-3.1,1.4-3.1,2.9c0,1.7,1.2,2.6,3.6,2.6h40.1c2.4,0,3.6-1,3.6-2.9c0-1.4-0.9-2.3-2.6-2.6l-6.4-0.7
		c-3.3-0.3-5.5-1.2-6.5-2.6c-1-1.4-1.5-3.8-1.5-7.1v-32.8c13.8-2.1,27.5-4.1,41.3-6v38.8c0,3.3-0.5,5.7-1.5,7.1
		c-1,1.4-3.2,2.4-6.5,2.9l-3.3,0.5c-1.7,0.3-2.6,1.3-2.6,2.9c0,1.7,1.1,2.6,3.3,2.6h40.4c1.9,0,2.9-0.9,2.9-2.6
		c0-1.6-0.9-2.5-2.6-2.9l-5.2-0.7c-3.5-0.5-5.8-1.4-6.9-2.7c-1.1-1.3-1.7-3.7-1.7-7v-40.9c13.8-1.7,27.5-3.3,41.3-4.8v45.7
		c0,3.3-0.6,5.7-1.7,7.1c-1.1,1.4-3.5,2.4-7.1,2.9l-3.3,0.5c-1.7,0.3-2.6,1.3-2.6,2.9c0,1.7,1.1,2.6,3.3,2.6h40.6
		c1.9,0,2.9-0.9,2.9-2.6c0-1.6-0.9-2.5-2.6-2.9l-5.2-0.7c-3.3-0.5-5.5-1.4-6.5-2.7c-1-1.3-1.5-3.7-1.5-7v-47.4
		c6.8-0.7,13.5-1.4,20.3-2v32.9c0,6,4.9,10.8,10.8,10.8h3c6,0,10.8,4.9,10.8,10.8v2.8c0,6,4.9,10.8,10.8,10.8h54.9
		c6,0,10.8-4.9,10.8-10.8v-2.8c0-6,4.9-10.8,10.8-10.8h0.6c6,0,10.8,4.9,10.8,10.8v2.8c0,6,4.9,10.8,10.8,10.8h5.7
		c6,0,10.8-4.9,10.8-10.8v-5.5c0-6-4.9-10.8-10.8-10.8h-3c-6,0-10.8-4.9-10.8-10.8v-39.7c14.4-0.8,28.7-1.5,43.1-2.2v61.1
		c0,3.3-0.5,5.7-1.5,7c-1,1.3-3.2,2.3-6.5,3l-2.9,0.5c-2.1,0.5-3.1,1.4-3.1,2.9c0,1.7,1.2,2.6,3.6,2.6h40.1c2.4,0,3.6-1,3.6-2.9
		c0-1.4-0.9-2.3-2.6-2.6l-6.4-0.7c-3.3-0.3-5.5-1.2-6.5-2.6c-1-1.4-1.5-3.8-1.5-7.1v-61.8c14.4-0.6,28.8-1.1,43.2-1.5v63.3
		c0,3.3-0.5,5.7-1.5,7.1c-1,1.4-3.2,2.4-6.5,2.9l-3.3,0.5c-1.7,0.3-2.6,1.3-2.6,2.9c0,1.7,1.1,2.6,3.3,2.6h22.5
		c-1,0.5-1.9,1-2.9,1.6c-3.6,2.1-7,4.3-10.3,6.8c-0.2,0.1-0.4,0.2-0.6,0.2h-10.5c-0.5,0-1,0.4-1,1v4.7c0,0.5-0.4,1-1,1h-5.2
		c-0.5,0-1,0.4-1,1v6.6c0,0.5-0.4,1-1,1h-4.2c-0.5,0-1,0.4-1,1v7.5c0,0.5-0.4,1-1,1h-3.8c-0.5,0-1,0.4-1,1v12.1c0,0.2,0,0.3-0.1,0.5
		c-2.2,4.1-4.2,8.3-6.1,12.6c-1.3,3.1-2.6,6.2-3.8,9.3l-2.2-15.7l-3.1,22.3c-0.8,5.7-5.2,10.1-10.9,10.9l-22.3,3.1l22.3,3.1
		c3.2,0.4,6,2,8,4.3c-2.5,12.2-3.8,23.3-3.8,33.4c0,4.2,0.1,8.1,0.4,11.9C940.7,623.7,896,624.4,851.4,624.3z M1019.1,669
		c-0.2-0.2-0.3-0.4-0.3-0.7v-9c0-0.5-0.4-1-1-1h-1.5c-0.5,0-1-0.4-1-1v-6c0-0.5-0.4-1-1-1h-0.8c-0.5,0-1-0.4-1-1v-5.9
		c0-0.5-0.4-1-1-1h-2.5c-0.5,0-1-0.4-1-1v-8.2c0-0.5-0.4-1-1-1h-0.4c-0.3,0-0.6-0.1-0.7-0.3c2.4-0.1,4.8-0.2,7.1-0.3
		c6.3-0.3,12.5-0.6,18.8-1c1.5,5.9,3.6,19.1,5,47.6C1030.1,677.8,1024.1,674.7,1019.1,669z M1066.4,650.8c-0.1,0.4-0.5,0.8-1,0.8h-2
		c-0.5,0-1,0.4-1,1v3.5c0,0.5-0.4,1-1,1h-1.1c-0.5,0-1,0.4-1,1v10.6c0,0.2-0.1,0.4-0.2,0.6c-1.1,1.5-2.4,2.7-3.7,3.7
		c-4,3-8.5,4.7-13.5,5.2c1.4-29.9,3.6-42.8,5.1-48.3c8.2-0.5,16.4-1,24.6-1.5L1066.4,650.8z M1296.9,607.3v3.3
		c0,6-4.9,10.8-10.8,10.8h-49.5c-4.6,0-8.6-2.9-10.1-7c23.6-2.8,47.2-6,70.7-9.6C1297,605.6,1296.9,606.5,1296.9,607.3z
		 M1429.6,605.3c-5.2,6.4-10.8,12.1-16.9,17.3c-6.1,5.2-12.6,9.4-19.3,12.6c-6.8,3.2-13.8,4.9-21,4.9c-3.7,0-6.9-0.5-9.9-1.5
		c-2.9-1-5.4-2.6-7.5-4.9c-2.1-2.3-3.7-5.3-4.9-8.9c-1.2-3.7-1.7-8.1-1.7-13.3c0-5.1,0.5-10.2,1.5-15.3c30.1-5.4,60.2-11.6,90-18.7
		v14.2C1436.8,596.1,1433.4,600.6,1429.6,605.3z M1538.5,561.1v49.5c0,6-4.9,10.8-10.8,10.8h-49.5c-6,0-10.8-4.9-10.8-10.8v-40
		c8.7-2.2,17.3-4.5,25.9-6.9c8.9-2.7,23.2-6.8,39.1-12.3C1536,553.2,1538.5,556.9,1538.5,561.1z M1467.4,567.3v-6.2
		c0-6,4.9-10.8,10.8-10.8h49.5c0.5,0,1.1,0.1,1.6,0.1C1508.9,557,1488.1,562.4,1467.4,567.3z M1585.9,516.3l-3.1-22.3l-3.1,22.3
		c-0.8,5.7-5.2,10.1-10.9,10.9l-22.3,3.1l22.3,3.1c1.1,0.1,2.1,0.4,3.1,0.8c-8.9,4-18,7.6-27.1,11c-2.2-2-3.6-4.9-3.6-8.1v-3
		c0-6-4.9-10.8-10.8-10.8h-54.9c-6,0-10.8,4.9-10.8,10.8v3c0,6-4.9,10.8-10.8,10.8h-3c-6,0-10.8,4.9-10.8,10.8v14.8
		c-29.3,6.2-58.8,11.4-88.4,15.9c1.5-5.5,3.5-10.7,5.9-15.7c2.8-5.7,6.1-11.1,9.9-16c3.8-4.9,7.9-9.1,12.3-12.7
		c4.4-3.5,9-6.3,13.7-8.4c4.7-2,9.5-3.1,14.2-3.1c5.7,0,9.9,1,12.6,2.9c2.7,1.9,4,4.6,4,7.9c0,1.9-0.3,3.7-0.9,5.3h-1.9
		c-3.1,0-5.6,0.5-7.3,1.6c-1.7,1-3,2.2-3.8,3.5c-0.8,1.3-1.3,2.5-1.5,3.7c-0.2,1.2-0.2,1.8-0.2,1.9c0,2.3,0.8,4.2,2.5,5.7
		c1.7,1.5,3.7,2.3,6,2.3c2.3,0,4.4-0.8,6.3-2.3c1.9-1.6,3.5-3.5,4.9-5.9c1.3-2.3,2.3-4.9,3.1-7.8c0.7-2.8,1.1-5.5,1.1-8
		c0-1.6-0.3-3.4-1-5.6c-0.7-2.2-2-4.3-3.8-6.3c-1.9-2-4.4-3.7-7.7-5.1c-3.2-1.4-7.4-2.1-12.5-2.1c-5,0-10.4,0.9-16.1,2.7
		c-5.7,1.8-11.3,4.5-16.9,7.9c-5.6,3.4-10.9,7.6-16.1,12.6c-5.1,5-9.6,10.5-13.5,16.7c-3.9,6.2-7,12.9-9.4,20.1
		c-0.7,2.2-1.3,4.4-1.8,6.7c-26.4,3.8-52.8,7.2-79.3,10.2c-9,1-18.1,2-27.1,2.9c1.8-3.5,5.4-5.8,9.6-5.8h27.7
		c6,0,10.8-4.9,10.8-10.8v-5.7c0-6-4.9-10.8-10.8-10.8h-27.7c-6,0-10.8-4.9-10.8-10.8v0c0-6,4.9-10.8,10.8-10.8h49.5
		c6,0,10.8,4.9,10.8,10.8v2.8c0,6,4.9,10.8,10.8,10.8h6c6,0,10.8-4.9,10.8-10.8v-5.2c0-6-4.9-10.8-10.8-10.8h-3.3
		c-6,0-10.8-4.9-10.8-10.8v-3c0-6-4.9-10.8-10.8-10.8h-54.9c-6,0-10.8,4.9-10.8,10.8v3c0,6-4.9,10.8-10.8,10.8h-3
		c-6,0-10.8,4.9-10.8,10.8v49.4c-16.3,1.6-32.6,3-48.9,4.4v-37.8c0-7.3,0.8-13.8,2.5-19.5s3.8-10.3,6.3-13.7
		c2.5-3.4,5.2-5.1,8.1-5.1c2.2,0,3.8,0.6,4.8,1.8c1,1.2,1.8,2.6,2.5,4.2c0.7,1.6,1.7,3,2.9,4.2c1.2,1.2,3,1.8,5.6,1.8
		c3.2,0,5.5-1,7-2.9c1.5-1.9,2.3-4.4,2.3-7.4c0-3.8-1.3-7.2-3.8-10.3c-2.5-3.1-6.4-4.6-11.6-4.6c-9.2,0-17,5.5-23.5,16.6
		c-0.8,1.4-1.7,2-2.6,1.8c-1-0.2-1.4-0.9-1.4-2v-12.8c0-1.9-0.7-2.9-2.1-2.9c-1,0-2.1,0.7-3.6,2.1c-2.9,2.5-5.6,4.7-8.2,6.4
		c-2.6,1.7-6.4,3-11.3,3.8c-2.5,0.5-3.8,1.3-3.8,2.6c0,1.6,1,2.5,3.1,2.6l5,0.7c2.2,0.3,3.8,1,4.6,2c0.9,1,1.3,3,1.3,5.8v63.8
		c-13.1,1-26.1,1.9-39.2,2.8l6-26.1c1-4,2.1-6.9,3.3-8.7c1.3-1.7,4-2.9,8.2-3.5l4.3-0.6c2.9-0.4,4.3-1.6,4.3-3.8
		c0-1.9-1.3-2.9-3.8-2.9h-52.3c-3.5,0-5.2,1.2-5.2,3.5c0,1.9,1.2,3,3.8,3.2l10.1,1.2c4.4,0.4,7,1.4,7.7,3c0.7,1.6,0.5,4.4-0.4,8.2
		l-6.3,27.7c-9.5,0.6-19,1.1-28.4,1.6c-0.7-2.1-1.6-5-2.5-8.7c-1.5-6-3.7-19.4-3.7-19.4s-2.2,13.4-3.7,19.4c-1,4.1-1.9,7.1-2.7,9.3
		c-9.2,0.4-18.5,0.9-27.7,1.2c-0.1-2-0.1-3.9-0.1-6c0-6.4,0.7-14.1,2.2-23.1c1-6.4,2.4-13.2,4.1-20.2l19.6-2.7l-18.3-2.5
		c0.3-1.2,0.6-2.3,0.9-3.5c2.8-10.2,6.4-20.2,10.7-30c0.4-1,0.9-1.9,1.3-2.8c0.2-0.3,0.5-0.6,0.9-0.6h4.5c0.5,0,1-0.4,1-1v-5.7
		c0-0.5,0.4-1,1-1h1.7c0.5,0,1-0.4,1-1v-6.9c0-0.5,0.4-1,1-1h1.5c0.5,0,1-0.4,1-1v-5c0.1-0.2,0.1-0.4,0.2-0.6
		c5.9-8.2,12.5-14.8,19.9-19.6c7.2-4.8,15.3-7.2,24.1-7.2c7.5,0,13,3,16.6,9.1c3.6,6.1,5.6,17.4,6.2,33.9l0.3,8.4
		c0,2.5,1.2,3.8,3.5,3.8c2.5,0,4-1.6,4.6-4.9l8.7-43.9c0.2-1.3,0.3-2.4,0.1-3.3h47c6,0,10.8-4.9,10.8-10.8v-2.8
		c0-6,4.9-10.8,10.8-10.8h3.3c6,0,10.8-4.9,10.8-10.8v-48.1c4.9,0.1,9.9,0.1,14.8,0.2c-1.3,6.5-2,13.5-2,21.1
		c0,12.2,1.8,22.9,5.3,32.2c3.6,9.3,8.4,16.4,14.4,21.5c6,5.1,12.8,7.6,20.4,7.6c7.9,0,14.6-2.8,20.2-8.4
		c5.5-5.6,9.6-15.5,12.1-29.6c0.5-3.2-0.2-4.8-2.1-4.8c-1.6,0-2.6,0.9-3.1,2.6c-2.4,10.1-5.5,17.3-9.3,21.6
		c-3.8,4.3-8.7,6.4-14.7,6.4c-7.6,0-13.9-4.2-18.8-12.6c-4.9-8.4-7.4-21-7.4-37.8c0-3.6,1.6-5.5,4.8-5.5h45.1c4,0,5.9-2.6,5.9-7.8
		c0-1.5,0-3-0.1-4.5c2.4,0.1,4.7,0.2,7.1,0.3c-1.6,5.2-2.9,10.4-4.1,15.6c-1.9,9-2.9,17.6-2.9,25.8c0,6.6,0.8,12.2,2.4,16.9
		c1.6,4.7,3.7,8.6,6.2,11.6c2.6,3,5.6,5.2,8.9,6.6s6.9,2.1,10.6,2.1c4.4,0,8.8-1.1,13.1-3.4c4.3-2.3,8.4-5.1,12.3-8.5
		c3.9-3.4,7.5-7.2,10.8-11.2c3.3-4,6.2-7.8,8.7-11.3c0.7-1,1.3-1.9,1.9-2.8v4c0,6,4.9,10.8,10.8,10.8h3c6,0,10.8,4.9,10.8,10.8v2.7
		c0,6,4.9,10.8,10.8,10.8h54.7c6,0,10.8-4.9,10.8-10.8v-3c0-6,4.9-10.8,10.8-10.8h3.2c6,0,10.8-4.9,10.8-10.8v-5.7
		c0-6-4.9-10.8-10.8-10.8h-6c-6,0-10.8,4.9-10.8,10.8v3.2c0,6-4.9,10.8-10.8,10.8H1405c-6,0-10.8-4.9-10.8-10.8v-0.3
		c0-6,4.9-10.8,10.8-10.8h27.6c6,0,10.8-4.9,10.8-10.8v-5.7c0-1.2-0.2-2.3-0.5-3.4c1.2,0.1,2.3,0.3,3.5,0.4
		c46.5,6.5,93.5,14,137.2,31.8c14.9,6.5,37.7,17.4,41.8,34.8c-1,0.4-4.5,1.7-14.8,3.3c-6,0.9-19.4,2.3-19.4,2.3s13.4,1.4,19.4,2.3
		c9.1,1.4,12.9,2.5,14.4,3.1c-4.3,14.4-20.9,25.3-34.1,32.8C1588.3,522.8,1586.4,519.8,1585.9,516.3z"/>
	<path class="st0" d="M714.2,512.3h-1.8c-1,0-1.9-0.8-1.9-1.9v-1.5c0-1-0.8-1.9-1.9-1.9h-1.8c-1,0-1.9-0.8-1.9-1.9v-1.4
		c0-1-0.8-1.9-1.9-1.9h-1.7c-1,0-1.9-0.8-1.9-1.9v-1.6c0-1-0.8-1.9-1.9-1.9h-24.6c-1,0-1.9,0.8-1.9,1.9v1.6c0,0.8-0.5,1.5-1.3,1.8
		c-1.3-0.4-2.2-1.4-2.4-2.8l-0.8-5.9l-0.8,5.9c-0.2,1.5-1.4,2.7-2.9,2.9l-5.9,0.8l5.9,0.8c1.2,0.2,2.2,1,2.7,2.1
		c-0.2,0.8-0.9,1.4-1.8,1.4h-1.7c-1,0-1.9,0.8-1.9,1.9v23.7c0,1,0.8,1.9,1.9,1.9h1.7c1,0,1.9,0.8,1.9,1.9v1.5c0,1,0.8,1.9,1.9,1.9
		h1.8c1,0,1.9,0.8,1.9,1.9v1.6c0,1,0.8,1.9,1.9,1.9h19.2c1,0,1.9-0.8,1.9-1.9v-2.8c0-1-0.8-1.9-1.9-1.9h-18c-1,0-1.9-0.8-1.9-1.9
		v-1.5c0-1-0.8-1.9-1.9-1.9h-1.8c-1,0-1.9-0.8-1.9-1.9v-20.9l0.2-1.3c0.3-0.6,0.9-1.1,1.7-1.1h1.8c1,0,1.9-0.8,1.9-1.9v-1.5
		c0-0.8,0.5-1.4,1.1-1.7l1.1-0.2h21.8c1,0,1.9,0.8,1.9,1.9v1.5c0,1,0.8,1.9,1.9,1.9h1.7c1,0,1.9,0.8,1.9,1.9v1.5
		c0,1,0.8,1.9,1.9,1.9h1.8c1,0,1.9,0.8,1.9,1.9v5.7c0,1-0.8,1.9-1.9,1.9h-1.8c-1,0-1.9,0.8-1.9,1.9v2.4c0,1-0.8,1.9-1.9,1.9h-0.1
		c-1,0-1.9-0.8-1.9-1.9v-9.4c0-1-0.8-1.9-1.9-1.9H697c-1,0-1.9-0.8-1.9-1.9v-0.8c0-1-0.8-1.9-1.9-1.9h-12.8c-1,0-1.9,0.8-1.9,1.9
		v0.8c0,1-0.8,1.9-1.9,1.9h-1.3c-1,0-1.9,0.8-1.9,1.9v10.5c0,1,0.8,1.9,1.9,1.9h1.3c1,0,1.9,0.8,1.9,1.9v0.7c0,1,0.8,1.9,1.9,1.9
		h12.8c1,0,1.9-0.8,1.9-1.9v-0.7c0-1,0.8-1.9,1.9-1.9s1.9,0.8,1.9,1.9v0.7c0,1,0.8,1.9,1.9,1.9h2.5c1,0,1.9-0.8,1.9-1.9v-1.5
		c0-1,0.8-1.9,1.9-1.9h1.8c1,0,1.9-0.8,1.9-1.9v-1.5c0-1,0.8-1.9,1.9-1.9h1.8c1,0,1.9-0.8,1.9-1.9v-8
		C716,513.1,715.2,512.3,714.2,512.3z M693.9,527.2c0,1-0.8,1.9-1.9,1.9h-10.4c-1,0-1.9-0.8-1.9-1.9v-8.3c0-1,0.8-1.9,1.9-1.9h10.4
		c1,0,1.9,0.8,1.9,1.9V527.2z"/>
	<path class="st0" d="M750.5,510.3h-2.3c-1,0-1.9-0.8-1.9-1.9v-1.6c0-1-0.8-1.9-1.9-1.9h-14.8c-1,0-1.9,0.8-1.9,1.9v1.6
		c0,1-0.8,1.9-1.9,1.9h-2.3c-1,0-1.9,0.8-1.9,1.9v12.7c0,1,0.8,1.9,1.9,1.9h2.3c1,0,1.9,0.8,1.9,1.9v1.5c0,1,0.8,1.9,1.9,1.9h14.8
		c1,0,1.9-0.8,1.9-1.9v-1.6c0-1,0.8-1.9,1.9-1.9h2.3c1,0,1.9-0.8,1.9-1.9v-2.2c0-1-0.8-1.9-1.9-1.9h-3c-1,0-1.9,0.8-1.9,1.9v1.7
		c0,1-0.8,1.9-1.9,1.9h-13.4c-1,0-1.9-0.8-1.9-1.9v-1c0-1,0.8-1.9,1.9-1.9h8.2c1,0,1.9-0.8,1.9-1.9v-2.2c0-1-0.8-1.9-1.9-1.9h-8.2
		c-1,0-1.9-0.8-1.9-1.9v-1c0-1,0.8-1.9,1.9-1.9h13.4c1,0,1.9,0.8,1.9,1.9v1.5c0,1,0.8,1.9,1.9,1.9h3c1,0,1.9-0.8,1.9-1.9v-2.1
		C752.4,511.2,751.6,510.3,750.5,510.3z"/>
	<path class="st0" d="M800,510.3h-0.7c-1.4,0-2.6-1.2-2.6-2.6v-0.1c0-1.4-1.2-2.6-2.6-2.6h-7.4c-1.4,0-2.6,1.2-2.6,2.6v0.1
		c0,1.4-1.2,2.6-2.6,2.6s-2.6-1.2-2.6-2.6v-0.1c0-1.4-1.2-2.6-2.6-2.6h-13.3c-1.4,0-2.6,1.2-2.6,2.6v21.7c0,1.4,1.2,2.6,2.6,2.6h1.4
		c1.4,0,2.6-1.2,2.6-2.6v-15.9c0-1.4,1.2-2.6,2.6-2.6h6c1.4,0,2.6,1.2,2.6,2.6v15.9c0,1.4,1.2,2.6,2.6,2.6h1.3
		c1.4,0,2.6-1.2,2.6-2.6v-15.9c0-1.4,1.2-2.6,2.6-2.6h6.1c1.4,0,2.6,1.2,2.6,2.6v15.9c0,1.4,1.2,2.6,2.6,2.6h1.3
		c1.4,0,2.6-1.2,2.6-2.6V513C802.6,511.5,801.4,510.3,800,510.3z"/>
	<path class="st0" d="M858.2,525.4h-1.4c-1.4,0-2.6,1.2-2.6,2.6v0.6c0,1.4,1.2,2.6,2.6,2.6h1.4c1.4,0,2.6-1.2,2.6-2.6V528
		C860.8,526.5,859.6,525.4,858.2,525.4z"/>
	<path class="st0" d="M896.8,510.3h-1.3c-1.3,0-2.3-1-2.3-2.3v-0.6c0-1.3-1-2.3-2.3-2.3H877c-1.3,0-2.3,1-2.3,2.3v0.6
		c0,1.3-1,2.3-2.3,2.3H871c-1.3,0-2.3,1-2.3,2.3v6.4c0,1.3,1,2.3,2.3,2.3h1.3c1.3,0,2.3,1,2.3,2.3v0.6c0,1.3,1,2.3,2.3,2.3h13.2
		c1.3,0,2.3,1,2.3,2.3v5.3c0,1.3-1,2.3-2.3,2.3h-12.6c-1.3,0-2.3-1-2.3-2.3v-0.6c0-1.3-1-2.3-2.3-2.3h-2c-1.3,0-2.3,1-2.3,2.3v1.2
		c0,1.3,1,2.3,2.3,2.3h1.3c1.3,0,2.3,1,2.3,2.3v0.6c0,1.3,1,2.3,2.3,2.3h13.9c1.3,0,2.3-1,2.3-2.3v-0.6c0-1.3,1-2.3,2.3-2.3h1.3
		c1.3,0,2.3-1,2.3-2.3v-22.3C899.1,511.4,898.1,510.3,896.8,510.3z M892.5,518.5c0,1.3-1,2.3-2.3,2.3h-12.6c-1.3,0-2.3-1-2.3-2.3
		v-5.3c0-1.3,1-2.3,2.3-2.3h12.6c1.3,0,2.3,1,2.3,2.3V518.5z"/>
	<path class="st0" d="M937.5,513.8v-1.1c0-1.3-1-2.3-2.3-2.3h-1.4c-1.3,0-2.3-1-2.3-2.3v-0.6c0-1.3-1-2.3-2.3-2.3h-13.8
		c-1.3,0-2.3,1-2.3,2.3v0.6c0,1.3-1,2.3-2.3,2.3h-1.3c-1.3,0-2.3,1-2.3,2.3v17c0,1.3,1,2.3,2.3,2.3h2c1.3,0,2.3-1,2.3-2.3v-16.4
		c0-1.3,1-2.3,2.3-2.3h12.5c1.3,0,2.3,1,2.3,2.3v0.6c0,1.3,1,2.3,2.3,2.3h2C936.5,516.1,937.5,515.1,937.5,513.8z"/>
	<path class="st0" d="M967.9,529.6V529c0-1.3,1-2.3,2.3-2.3h1.4c1.3,0,2.3-1,2.3-2.3v-1.2c0-1.3-1-2.3-2.3-2.3h-2
		c-1.3,0-2.3,1-2.3,2.3v0.7c0,1.3-1,2.3-2.3,2.3h-12.5c-1.3,0-2.3-1-2.3-2.3v-0.1c0-1.3,1-2.3,2.3-2.3h7.3c1.3,0,2.3-1,2.3-2.3v-1.2
		c0-1.3-1-2.3-2.3-2.3h-7.3c-1.3,0-2.3-1-2.3-2.3s1-2.3,2.3-2.3h12.5c1.3,0,2.3,1,2.3,2.3v0.6c0,1.3,1,2.3,2.3,2.3h2
		c1.3,0,2.3-1,2.3-2.3v-1.1c0-1.3-1-2.3-2.3-2.3h-1.4c-1.3,0-2.3-1-2.3-2.3v-0.6c0-1.3-1-2.3-2.3-2.3h-13.8c-1.3,0-2.3,1-2.3,2.3
		v0.6c0,1.3-1,2.3-2.3,2.3h-1.3c-1.3,0-2.3,1-2.3,2.3v8.4l-0.2,1.7c-0.2,1.5-1.4,2.7-2.9,2.9l-5.9,0.8l5.9,0.8
		c1.5,0.2,2.7,1.4,2.9,2.9l0.8,5.9l0.8-5.9c0.2-1.5,1.4-2.7,2.9-2.9l0.7-0.1c0.6,0.4,0.9,1.1,0.9,1.9v0.6c0,1.3,1,2.3,2.3,2.3h13.8
		C966.8,532,967.9,530.9,967.9,529.6z"/>
	<path class="st0" d="M840.7,514.6c0.2-1.5,1.4-2.7,2.9-2.9l5.9-0.8l-5.9-0.8c-1.5-0.2-2.7-1.4-2.9-2.9l-0.8-5.9l-0.8,5.9
		c-0.2,1.5-1.4,2.7-2.9,2.9l-0.3,0c-0.9-0.4-1.5-1.3-1.5-2.4v-0.1c0-1.4-1.2-2.6-2.6-2.6h-13.2c-1.4,0-2.6,1.2-2.6,2.6v0.1
		c0,1.4-1.2,2.6-2.6,2.6h-0.7c-1.4,0-2.6,1.2-2.6,2.6v11.1c0,1.4,1.2,2.6,2.6,2.6h0.7c1.4,0,2.6,1.2,2.6,2.6v0
		c0,1.4,1.2,2.6,2.6,2.6h13.2c1.4,0,2.6-1.2,2.6-2.6v0c0-1.4,1.2-2.6,2.6-2.6h0.1c1.4,0,2.6,1.2,2.6,2.6v0c0,1.4,1.2,2.6,2.6,2.6
		h1.4c1.4,0,2.6-1.2,2.6-2.6v-0.6c0-1.4-1.2-2.6-2.6-2.6h-0.7c-1.4,0-2.6-1.2-2.6-2.6v-6.2L840.7,514.6z M833.6,523.5
		c0,1.4-1.2,2.6-2.6,2.6h-11.9c-1.4,0-2.6-1.2-2.6-2.6v-10c0-1.4,1.2-2.6,2.6-2.6h11.2l1.9,0.3c0.9,0.4,1.5,1.3,1.5,2.4V523.5z"/>
</g>
<path d="M2939.1-754.1c-2.4,0-3.6-0.9-3.6-2.6c0-1.4,1-2.4,3.1-2.9l2.9-0.5c3.3-0.6,5.5-1.6,6.5-3c1-1.3,1.5-3.7,1.5-7v-79.8
	c0-2.9-0.4-4.8-1.3-5.8c-0.9-1-2.4-1.7-4.6-2l-5-0.7c-2.1-0.2-3.1-1-3.1-2.6c0-1.3,1.3-2.1,3.8-2.6c4.9-0.8,8.7-2.1,11.3-3.8
	c2.6-1.7,5.3-3.9,8.2-6.4c1.4-1.4,2.6-2.1,3.6-2.1c1.4,0,2.1,1,2.1,2.9v10.7c0,1.1,0.5,1.9,1.4,2.5c1,0.6,2,0.3,3.1-0.8
	c6.5-6.2,12.2-10.4,17-12.6c4.8-2.2,9.7-3.3,14.6-3.3c4.6,0,8.7,1.2,12.2,3.7c3.6,2.5,6.2,6.1,8,11c0.5,1.3,1.3,2,2.5,2.3
	c1.2,0.2,2.3-0.2,3.4-1.3c6.5-6,12.1-10.1,16.9-12.4c4.8-2.2,9.6-3.3,14.5-3.3c6.7,0,12.1,2.5,16.3,7.5c4.2,5,6.3,12.3,6.3,22v77.2
	c0,3.3,0.5,5.7,1.5,7c1,1.3,3.2,2.3,6.5,2.7l5.2,0.7c1.7,0.3,2.6,1.3,2.6,2.9c0,1.7-1,2.6-2.9,2.6h-40.6c-2.2,0-3.3-0.9-3.3-2.6
	c0-1.6,0.9-2.5,2.6-2.9l3.3-0.5c3.6-0.5,6-1.4,7.1-2.9c1.1-1.4,1.7-3.8,1.7-7.1v-74.6c0-7.8-1.4-13.2-4.2-16.4
	c-2.8-3.2-6.5-4.8-11.3-4.8s-9.1,1.5-12.9,4.4c-3.9,2.9-7,6.8-9.4,11.6c-2.4,4.8-3.6,10.2-3.6,16v63.7c0,3.3,0.6,5.7,1.7,7
	c1.1,1.3,3.4,2.3,6.9,2.7l5.2,0.7c1.7,0.3,2.6,1.3,2.6,2.9c0,1.7-1,2.6-2.9,2.6h-40.4c-2.2,0-3.3-0.9-3.3-2.6c0-1.6,0.9-2.5,2.6-2.9
	l3.3-0.5c3.3-0.5,5.5-1.4,6.5-2.9c1-1.4,1.5-3.8,1.5-7.1v-74.6c0-7.8-1.4-13.2-4.2-16.4c-2.8-3.2-6.5-4.8-11.3-4.8
	c-4.8,0-9.1,1.5-12.9,4.4c-3.9,2.9-7,6.8-9.4,11.6c-2.4,4.8-3.6,10.2-3.6,16v63.7c0,3.3,0.5,5.7,1.5,7.1c1,1.4,3.2,2.3,6.5,2.6
	l6.4,0.7c1.7,0.3,2.6,1.2,2.6,2.6c0,1.9-1.2,2.9-3.6,2.9H2939.1z"/>
<path d="M3125.6-751.3v-24.4h-24.7V-852h24.7v-24.7h76.6v24.7h25v73.6h24.7v27.1h-27.4v-24.4h-22.3v24.4H3125.6z M3128.3-778.4h71.1
	v-71.1h-71.1V-778.4z"/>
<path d="M3259.8-754.1c-2.4,0-3.6-0.9-3.6-2.6c0-1.4,1-2.4,3.1-2.9l2.9-0.5c3.3-0.6,5.5-1.6,6.5-3c1-1.3,1.5-3.7,1.5-7v-79.8
	c0-2.9-0.4-4.8-1.3-5.8c-0.9-1-2.4-1.7-4.6-2l-5-0.7c-2.1-0.2-3.1-1-3.1-2.6c0-1.3,1.3-2.1,3.8-2.6c4.9-0.8,8.7-2.1,11.3-3.8
	c2.6-1.7,5.3-3.9,8.2-6.4c1.4-1.4,2.6-2.1,3.6-2.1c1.4,0,2.1,1,2.1,2.9v10.7c0,1.4,0.5,2.3,1.5,2.7c1,0.4,2.2,0,3.4-1.3
	c6.3-6,11.9-10.1,16.7-12.4c4.8-2.2,9.9-3.3,15.3-3.3c7.1,0,12.8,2.5,17.1,7.5s6.4,12.3,6.4,22v77.2c0,3.3,0.5,5.7,1.5,7
	c1,1.3,3.2,2.3,6.5,2.7l5.2,0.7c1.7,0.3,2.6,1.3,2.6,2.9c0,1.7-0.9,2.6-2.8,2.6h-39.9c-2.2,0-3.3-0.9-3.3-2.6c0-1.6,0.9-2.5,2.6-2.9
	l3.3-0.5c3.3-0.5,5.5-1.4,6.5-2.9c1-1.4,1.5-3.8,1.5-7.1v-74.6c0-7.8-1.4-13.2-4.3-16.4c-2.8-3.2-6.9-4.8-12.1-4.8
	c-5.1,0-9.6,1.5-13.7,4.4c-4,2.9-7.2,6.8-9.6,11.6c-2.4,4.8-3.6,10.2-3.6,16v63.7c0,3.3,0.5,5.7,1.5,7.1c1,1.4,3.2,2.3,6.5,2.6
	l6.4,0.7c1.7,0.3,2.6,1.2,2.6,2.6c0,1.9-1.2,2.9-3.6,2.9H3259.8z"/>
<path d="M3394.8-751.3v-24.4h-24.7v-101h27.4v98.3h71.1v-98.3h27.7v101h-25v24.4H3394.8z"/>
<path d="M3549.2-752c-7.6,0-14.4-2.5-20.4-7.6c-6-5.1-10.8-12.2-14.4-21.5c-3.6-9.3-5.3-20-5.3-32.2c0-12.5,1.8-23.5,5.5-33
	c3.6-9.5,8.6-16.9,15-22.3c6.3-5.4,13.4-8.1,21.1-8.1c9.3,0,16.9,3.8,22.7,11.5c5.8,7.7,8.7,20.2,8.7,37.4c0,5.2-2,7.8-5.9,7.8
	h-45.1c-3.2,0-4.8,1.8-4.8,5.5c0,16.8,2.5,29.4,7.4,37.8c4.9,8.4,11.2,12.6,18.8,12.6c6,0,10.9-2.1,14.7-6.4
	c3.8-4.3,6.9-11.5,9.3-21.6c0.5-1.7,1.5-2.6,3.1-2.6c1.9,0,2.6,1.6,2.1,4.8c-2.5,14.1-6.6,24-12.1,29.6
	C3563.9-754.8,3557.1-752,3549.2-752z M3530.2-825.9h24c7.6,0,11.4-4,11.4-11.9c0-10.3-1.3-18.4-3.8-24.2c-2.5-5.9-6.3-8.8-11.4-8.8
	c-6.2,0-11.4,3.6-15.6,10.7c-4.2,7.1-6.9,17.3-8.2,30.4C3526.3-827.1,3527.5-825.9,3530.2-825.9z"/>
<path d="M3680.4-951.3c3.2,0,5.8,0.8,7.9,2.3c2.1,1.5,3.2,4.3,3.2,8.4c0,2.8-0.6,6.1-1.7,10c-1.1,3.9-2.7,8.1-4.6,12.7
	c-1.9,4.6-4.2,9.3-6.8,14.4c-2.6,5-5.4,10-8.5,15c-3,5-6.2,9.8-9.5,14.5c-3.3,4.7-6.6,9-9.8,13c-6.5,8-12.1,14.8-16.9,20.3
	c-4.7,5.5-8.8,10.2-12.3,14c-3.4,3.8-6.3,7-8.7,9.3c-2.3,2.4-4.4,4.4-6.2,6.2c-1.8,1.7-3.5,3.3-5,4.7c-1.5,1.4-3.1,3-4.7,4.7
	c-0.7,3.4-1.1,6.7-1,9.8c0,3.1,0.1,6,0.1,8.6c0,7.9,1.3,13.7,3.8,17.5c2.5,3.8,6.1,5.7,10.7,5.7c3.1,0,6.2-0.8,9.3-2.4
	c3.1-1.6,6.2-3.6,9.3-6.2c3.1-2.5,6-5.4,8.9-8.6c2.9-3.2,5.6-6.5,8.2-9.8c2.6-3.3,4.9-6.5,7-9.5c2.1-3.1,3.9-5.7,5.4-8l5,3.8
	c-0.3,0.4-1.2,1.8-2.6,4.3c-1.5,2.5-3.5,5.5-5.9,9c-2.4,3.5-5.3,7.3-8.7,11.3c-3.3,4-7,7.7-10.8,11.2c-3.9,3.4-8,6.3-12.3,8.5
	c-4.3,2.3-8.6,3.4-13.1,3.4c-3.7,0-7.2-0.7-10.6-2.1c-3.4-1.4-6.4-3.6-8.9-6.6c-2.6-3-4.7-6.9-6.2-11.6c-1.6-4.7-2.4-10.3-2.4-16.9
	c0-8.2,1-16.8,2.9-25.8c1.9-9,4.6-18,7.9-27.1c3.3-9.1,7.3-18,11.8-26.9c4.5-8.8,9.3-17.3,14.4-25.3c5.1-8,10.4-15.4,16-22.2
	c5.6-6.8,11-12.7,16.4-17.7c5.4-5,10.5-8.8,15.5-11.6C3671.9-949.9,3676.4-951.3,3680.4-951.3z M3599.3-814
	c7.7-7.9,15.1-16,22.3-24.2c7.2-8.2,13.9-16.3,20.2-24.2c6.3-8,12-15.8,17.3-23.3c5.2-7.5,9.7-14.6,13.4-21.3
	c3.7-6.7,6.6-12.8,8.7-18.3c2.1-5.5,3.1-10.2,3.1-14.2c0-0.7-0.4-1.7-1.1-2.9c-0.7-1.2-1.6-1.8-2.6-1.8c-2.8,0-6.5,1.9-11.1,5.6
	c-4.6,3.7-9.6,8.7-15,15.1c-5.4,6.4-10.9,13.8-16.7,22.3c-5.7,8.5-11.1,17.6-16.2,27.2c-5.1,9.7-9.6,19.6-13.5,29.9
	C3604.1-833.9,3601.2-823.8,3599.3-814z"/>
<path d="M3699.2-751.3v-24.4h-24.6v-76.1h24.6v-24.6h76.4v24.6h24.9v26.8h-27.6v-24.4h-71v21.7h49.3v27.4h-49.3v21.9h71v-24.9h27.6
	v27.4h-24.9v24.6H3699.2z"/>
<path d="M3442.4-694.4c6.5-11.1,14.3-16.6,23.5-16.6c5.2,0,9.1,1.5,11.6,4.6c2.5,3.1,3.8,6.5,3.8,10.3c0,3-0.8,5.5-2.3,7.4
	c-1.5,1.9-3.8,2.9-7,2.9c-2.5,0-4.4-0.6-5.6-1.8c-1.2-1.2-2.1-2.6-2.9-4.2c-0.7-1.6-1.5-3-2.5-4.2c-1-1.2-2.5-1.8-4.8-1.8
	c-2.8,0-5.5,1.7-8.1,5.1c-2.5,3.4-4.6,8-6.3,13.7s-2.5,12.2-2.5,19.5v55.1c0,3.3,0.5,5.7,1.5,7.1c1,1.4,3.2,2.3,6.5,2.6l6.4,0.7
	c1.7,0.3,2.6,1.2,2.6,2.6c0,1.9-1.2,2.9-3.6,2.9h-40.1c-2.4,0-3.6-0.9-3.6-2.6c0-1.4,1-2.4,3.1-2.9l2.9-0.5c3.3-0.6,5.5-1.6,6.5-3
	c1-1.3,1.5-3.7,1.5-7v-79.8c0-2.9-0.4-4.8-1.3-5.8c-0.9-1-2.4-1.7-4.6-2l-5-0.7c-2.1-0.2-3.1-1-3.1-2.6c0-1.3,1.3-2.1,3.8-2.6
	c4.9-0.8,8.7-2.1,11.3-3.8c2.6-1.7,5.3-3.9,8.2-6.4c1.4-1.4,2.6-2.1,3.6-2.1c1.4,0,2.1,1,2.1,2.9v12.8c0,1.1,0.5,1.8,1.4,2
	C3440.7-692.3,3441.6-692.9,3442.4-694.4z"/>
<path d="M3513.1-585.6V-610h-24.7v-76.3h24.7V-711h76.6v24.7h25v26.9H3587v-24.4h-71.1v21.7h49.4v27.4h-49.4v22h71.1v-25h27.7v27.4
	h-25v24.7H3513.1z"/>
<path d="M3714.1-689.7c0-3.3-1.3-6-4-7.9c-2.7-1.9-6.9-2.9-12.6-2.9c-4.7,0-9.4,1-14.2,3.1c-4.8,2-9.3,4.8-13.7,8.4
	c-4.4,3.6-8.5,7.8-12.3,12.7c-3.8,4.9-7.1,10.2-9.9,16c-2.8,5.7-5,11.8-6.6,18.2c-1.6,6.4-2.4,12.9-2.4,19.3c0,5.2,0.6,9.7,1.7,13.3
	c1.1,3.7,2.8,6.6,4.9,8.9c2.1,2.3,4.6,3.9,7.5,4.9c2.9,1,6.2,1.5,9.9,1.5c7.2,0,14.2-1.6,21-4.9c6.8-3.2,13.2-7.4,19.3-12.6
	c6.1-5.2,11.7-10.9,16.9-17.3c5.2-6.4,9.7-12.6,13.7-18.8l5.8,4.4c-5.6,9.5-11.6,17.8-18,25c-6.4,7.2-12.9,13.1-19.6,17.9
	c-6.7,4.8-13.5,8.4-20.4,10.8c-6.9,2.4-13.6,3.6-20.2,3.6c-5.2,0-10.2-0.8-15-2.3c-4.8-1.6-8.9-3.9-12.5-7.1
	c-3.6-3.2-6.5-7.3-8.6-12.3s-3.2-11-3.2-17.9c0-8.1,1.2-15.8,3.5-23.1c2.3-7.3,5.5-14,9.4-20.1c3.9-6.2,8.4-11.7,13.5-16.7
	c5.1-5,10.5-9.2,16.1-12.6c5.6-3.4,11.2-6.1,16.9-7.9c5.7-1.8,11-2.7,16.1-2.7c5.1,0,9.3,0.7,12.5,2.1c3.2,1.4,5.8,3.1,7.7,5.1
	c1.9,2,3.2,4.1,3.8,6.3c0.7,2.2,1,4.1,1,5.6c0,2.5-0.4,5.2-1.1,8c-0.7,2.8-1.7,5.4-3.1,7.8c-1.3,2.3-2.9,4.3-4.9,5.9
	c-1.9,1.6-4,2.3-6.3,2.3c-2.3,0-4.3-0.8-6-2.3c-1.7-1.5-2.5-3.4-2.5-5.7c0-0.1,0.1-0.7,0.2-1.9c0.2-1.1,0.7-2.4,1.5-3.7
	c0.8-1.3,2.1-2.5,3.8-3.5c1.7-1,4.1-1.6,7.3-1.6h1.9C3713.8-686,3714.1-687.8,3714.1-689.7z"/>
<path d="M3754.7-585.6V-610H3730v-76.3h24.7V-711h76.6v24.7h25v76.3h-25v24.4H3754.7z M3757.4-612.7h71.1v-71.1h-71.1V-612.7z"/>
<path d="M3297.4-641.9c1.4-9.1,3.6-18.7,6.4-28.9c2.8-10.2,6.4-20.2,10.7-30c0.4-1,0.9-1.9,1.3-2.8c0.2-0.3,0.5-0.6,0.9-0.6h4.5
	c0.5,0,1-0.4,1-1v-5.7c0-0.5,0.4-1,1-1h1.7c0.5,0,1-0.4,1-1v-6.9c0-0.5,0.4-1,1-1h1.5c0.5,0,1-0.4,1-1v-5c0.1-0.2,0.1-0.4,0.2-0.6
	c5.9-8.2,12.5-14.8,19.9-19.6c7.2-4.8,15.3-7.2,24.1-7.2c7.5,0,13,3,16.6,9.1c3.6,6.1,5.6,17.4,6.2,33.9l0.3,8.4
	c0,2.5,1.2,3.8,3.5,3.8c2.5,0,4-1.6,4.6-4.9l8.7-43.9c0.6-3.1,0-5.1-1.7-6.1c-4-2.3-9.1-4.2-15-5.6c-6-1.4-13.2-2.2-21.7-2.2
	c-13.5,0-25.6,3.1-36.4,9.2c-3.6,2.1-7,4.3-10.3,6.8c-0.2,0.1-0.4,0.2-0.6,0.2h-10.5c-0.5,0-1,0.4-1,1v4.7c0,0.5-0.4,1-1,1h-5.2
	c-0.5,0-1,0.4-1,1v6.6c0,0.5-0.4,1-1,1h-4.2c-0.5,0-1,0.4-1,1v7.5c0,0.5-0.4,1-1,1h-3.8c-0.5,0-1,0.4-1,1v12.1c0,0.2,0,0.3-0.1,0.5
	c-2.2,4.1-4.2,8.3-6.1,12.6c-5.3,12.2-9.2,24.5-11.8,36.8c-2.6,12.3-3.9,23.6-3.9,33.8c0,9.6,0.7,18.3,2.2,26.1
	c0.1,0.6-0.3,1.2-1,1.2h-0.2c-0.5,0-1,0.4-1,1v11.5c0,0.5,0.4,1,1,1h2.5c0.5,0,1,0.4,1,1v6.3c0,0.5,0.4,1,1,1h2.5c0.5,0,1,0.4,1,1
	v8.2c0,0.5,0.4,1,1,1h3.9c0.5,0,1,0.4,1,1v7.2c0,0.5,0.4,1,1,1h10.6c0.2,0,0.4,0.1,0.5,0.2c7.4,4.8,16.2,7.2,26.3,7.2
	c7.1,0,13.5-1.1,19.1-3.2c4.9-1.9,9.5-4.1,13.9-6.5c0.1-0.1,0.3-0.1,0.5-0.1h8.5c0.5,0,1-0.4,1-1v-3.5c0-0.5,0.4-1,1-1h1.1
	c0.5,0,1-0.4,1-1v-5.9c0-0.5,0.4-1,1-1l0,0c0.5,0,1-0.4,1-1v-9.9c0-0.1,0-0.1,0-0.2l14.1-61c1-4,2.1-6.9,3.3-8.7
	c1.3-1.7,4-2.9,8.2-3.5l4.3-0.6c2.9-0.4,4.3-1.6,4.3-3.8c0-1.9-1.3-2.9-3.8-2.9h-52.3c-3.5,0-5.2,1.2-5.2,3.5c0,1.9,1.2,3,3.8,3.2
	l10.1,1.2c4.4,0.4,7,1.4,7.7,3c0.7,1.6,0.5,4.4-0.4,8.2l-13.8,60.6c-0.1,0.4-0.5,0.8-1,0.8h-2c-0.5,0-1,0.4-1,1v3.5c0,0.5-0.4,1-1,1
	h-1.1c-0.5,0-1,0.4-1,1v10.6c0,0.2-0.1,0.4-0.2,0.6c-1.1,1.5-2.4,2.7-3.7,3.7c-4.8,3.6-10.3,5.3-16.5,5.3c-7.7,0-14.3-3.1-19.8-9.3
	c-0.2-0.2-0.3-0.4-0.3-0.7v-9c0-0.5-0.4-1-1-1h-1.5c-0.5,0-1-0.4-1-1v-6c0-0.5-0.4-1-1-1h-0.8c-0.5,0-1-0.4-1-1v-5.9
	c0-0.5-0.4-1-1-1h-2.5c-0.5,0-1-0.4-1-1v-8.2c0-0.5-0.4-1-1-1h-0.4c-0.5,0-0.9-0.4-1-0.9c-0.5-5-0.7-10.3-0.7-16.1
	C3295.2-625.2,3295.9-632.9,3297.4-641.9z"/>
<path d="M2977.7-938.7c-2.2-4-5.4-7.4-9.5-10.2c-4-2.7-9-4.9-14.7-6.4c-5.5-1.4-11.7-2.2-18.6-2.2v0h-54c-0.9,0-1.6,0.7-1.6,1.6v3.5
	c0,0.9-0.7,1.6-1.6,1.6h-9.7c-0.9,0-1.6,0.7-1.6,1.6v7.3c0,0.9-0.7,1.6-1.6,1.6h-5.3c-0.9,0-1.6,0.7-1.6,1.6v7.3
	c0,0.9-0.7,1.6-1.6,1.6h-3.1c-0.9,0-1.6,0.7-1.6,1.6v14.2c0,0.3-0.1,0.5-0.2,0.7c-1.6,2.9-3,5.9-4.2,9.1c-2.5,6.6-3.8,13.7-3.8,21.1
	c0,4.1,0.5,8.1,1.5,11.9c0.5,1.9,1.1,3.8,1.8,5.7c0.4,1-0.3,2-1.3,2.1c-7.9,0.7-15.3,2-21.9,3.9c-6.7,1.9-12.8,4.4-18.3,7.2
	c-0.2,0.1-0.5,0.2-0.7,0.2h-14.5c-0.9,0-1.6,0.7-1.6,1.6v3.6c0,0.9-0.7,1.6-1.6,1.6h-3.6c-0.9,0-1.6,0.7-1.6,1.6v3.6
	c0,0.9-0.7,1.6-1.6,1.6h-4.6c-0.9,0-1.6,0.7-1.6,1.6v5.9c0,0.9-0.7,1.6-1.6,1.6h-0.6c-0.9,0-1.6,0.7-1.6,1.6v8.7
	c0,0.9-0.7,1.6-1.6,1.6h-0.4c-0.9,0-1.6,0.7-1.6,1.6v11.9c0,0.1-0.1,0.3-0.1,0.4c-1.4,5.8-2.2,11.6-2.2,17.3
	c0,8.1,1.5,15.9,4.5,23.1c3,7.3,7.7,13.8,13.9,19.4c6.2,5.5,14.1,10,23.4,13.2c9.3,3.2,20.5,4.9,33.2,4.9c6.5,0,12.8-0.5,18.9-1.4
	c0.1,0,0.1,0,0.2,0h20.3c0.9,0,1.6-0.7,1.6-1.6v-2.4c0-0.9,0.7-1.6,1.6-1.6h8.5c0.9,0,1.6-0.7,1.6-1.6v-1.6c0.6-0.6,1-1,1.7-1.7h9.6
	c0.9,0,1.6-0.7,1.6-1.6v-1.6c0-0.9,0.7-1.6,1.6-1.6h8.3c0.9,0,1.6-0.7,1.6-1.6v-4.9c0-0.9,0.7-1.6,1.6-1.6h11.6
	c0.9,0,1.6-0.7,1.6-1.6v-11.9h-0.5c3.7-3.4,7.1-6.8,10.2-10.1c5.2-5.6,9.7-11,13.3-16c2.7-3.8,7.3-10.2,9.2-12.8
	c0.5-0.7,0.3-1.6-0.3-2.1l-6.4-5c-0.7-0.5-1.7-0.4-2.2,0.3c-1.5,1.9-4.3,5.8-6.5,8.6c-2.9,3.9-6.8,8.6-11.6,13.8
	c-4.8,5.2-10.5,10.8-17,16.6c-0.4,0.4-0.8,0.7-1.2,1c-0.3,0.2-0.6,0.4-1,0.4h-18.3c-0.9,0-1.6,0.7-1.6,1.6v3.6
	c0,0.9-0.7,1.6-1.6,1.6h-13.1c-0.9,0-1.6,0.7-1.6,1.6v1.4c0,0.9-0.7,1.6-1.6,1.6h-11.3c-0.9,0-1.6,0.7-1.6,1.6v2.8
	c0,0.9-0.7,1.6-1.6,1.6h-9.7c-0.9,0-1.6,0.7-1.6,1.6v2.7c0,0.9-0.7,1.6-1.6,1.6h-13.4c-0.9,0-1.6,0.7-1.6,1.6v0.8
	c0,0.9-0.7,1.6-1.6,1.6h-5.2c-0.9,0-1.6,0.7-1.6,1.6l0,0c0,0.9-0.8,1.7-1.8,1.5c-3.2-0.5-6.3-1.2-9.2-2.1
	c-6.9-2.1-12.7-5.2-17.3-9.1c-4.5-3.9-8-8.7-10.3-14.1c-2.3-5.5-3.5-11.9-3.5-18.8c0-4.6,0.5-9.1,1.5-13.5c0.2-0.7,0.8-1.2,1.5-1.2
	h3.4c0.9,0,1.6-0.7,1.6-1.6v-5.6c0-0.9,0.7-1.6,1.6-1.6h4.9c0.9,0,1.6-0.7,1.6-1.6v-8.3c0-0.9,0.7-1.6,1.6-1.6h1.9
	c0.9,0,1.6-0.7,1.6-1.6v-3.6c0-0.9,0.7-1.6,1.6-1.6h2.6c0.9,0,1.6-0.7,1.6-1.6v-3.6c0-0.9,0.7-1.6,1.6-1.6h8.3
	c0.9,0,1.6-0.7,1.6-1.6v-7.8c0-0.6,0.3-1.1,0.9-1.4c0.9-0.4,1.7-0.8,2.6-1.2c7.8-3.5,16.4-5.8,25.5-6.7c0.5-0.1,1.1,0.2,1.4,0.6
	c2.2,2.8,4.5,5.5,7.1,7.9c3.1,2.9,6.4,5.5,9.9,7.5c3.4,2.1,7.1,3.7,10.8,4.9c3.7,1.2,7.5,1.8,11,1.8c4.7,0,8.7-1.1,11.9-3.4
	c3.5-2.4,5.2-6,5.2-10.5c0-4.1-1.4-7.6-4.2-10.5c-2.6-2.7-6.1-4.9-10.5-6.5c-4.2-1.6-9.3-2.8-15-3.5c-4.8-0.6-10-1.1-15.5-1.3
	c-0.6,0-1.2-0.4-1.4-1c-1.3-3.9-1.9-7.9-1.9-12.1c0-5.1,1-10.4,2.9-15.5c1.9-5.2,4.7-10.3,8.3-15.2c2.1-2.9,4.5-5.7,7.1-8.3
	c0.3-0.3,0.7-0.5,1.1-0.5h8.4c0.9,0,1.6-0.7,1.6-1.6v-3.6c0-0.9,0.7-1.6,1.6-1.6h9.8c0.9,0,1.6-0.7,1.6-1.6v-6.9
	c0.7-0.7,1.2-1.2,1.9-1.9h15.9c0.9,0,1.6-0.7,1.6-1.6v-3.8c0-0.7,0.5-1.4,1.2-1.5c5.6-1.2,11.5-1.9,17.3-1.9c3.9,0,7.6,0.4,10.9,1.2
	c3.2,0.8,5.9,2,8.1,3.5c2.1,1.4,3.8,3.2,5,5.3c1.2,2.1,1.8,4.5,1.8,7.2c0,5.3-1.7,10.1-5,14.5c-3.5,4.6-8.1,8.6-13.7,11.9
	c-5.7,3.3-12.2,6-19.3,7.9c-7.1,1.9-14.2,2.8-21.2,2.8l-5.2-0.1c-0.8,0-1.5,0.6-1.6,1.4l-1.1,9.1c-0.1,0.9,0.6,1.7,1.5,1.7
	c2.1,0.1,5.7,0.3,6.9,0.3c5.1,0,10.5-0.5,16-1.5s10.9-2.5,16.1-4.4c5.2-1.9,10.1-4.3,14.8-7.1c4.6-2.8,8.8-6.1,12.3-9.7
	c3.6-3.7,6.4-7.8,8.5-12.3c2.1-4.6,3.2-9.5,3.2-14.7C2981.1-930.3,2980-934.7,2977.7-938.7z M2879.7-850.8c3.9,0.4,7.4,1,10.5,1.8
	c2.9,0.8,5.2,1.8,7,3c1.4,1,2,2,2,3.5c0,0.2,0,0.7-0.9,1.3c-0.6,0.4-1.7,0.9-4.1,0.9c-1.9,0-3.9-0.3-6-1c-2.2-0.7-4.3-1.7-6.5-3
	c-1.2-0.7-3.3-2.4-5.2-4c-1.2-1-0.4-2.9,1.2-2.7C2878.3-850.9,2879-850.9,2879.7-850.8z"/>
</svg>
